PathFileType	4	(X/Y/Z)	T1_P1_NoVision_NoMovement_3_0-639.trc
DataRate	CameraRate	NumFrames	NumMarkers	Units	OrigDataRate	OrigDataStartFrame	OrigNumFrames
60	60	7	27	m	60	239	639
Frame#	Time	RHip			RKnee			RAnkle			RBigToe			RSmallToe			RHeel			LHip			LKnee			LAnkle			LBigToe			LSmallToe			LHeel			Neck			Head			Nose			RShoulder			RElbow			RWrist			RThumb			RIndex			RPinky			LShoulder			LElbow			LWrist			LThumb			LIndex			LPinky		
		X1	Y1	Z1	X2	Y2	Z2	X3	Y3	Z3	X4	Y4	Z4	X5	Y5	Z5	X6	Y6	Z6	X7	Y7	Z7	X8	Y8	Z8	X9	Y9	Z9	X10	Y10	Z10	X11	Y11	Z11	X12	Y12	Z12	X13	Y13	Z13	X14	Y14	Z14	X15	Y15	Z15	X16	Y16	Z16	X17	Y17	Z17	X18	Y18	Z18	X19	Y19	Z19	X20	Y20	Z20	X21	Y21	Z21	X22	Y22	Z22	X23	Y23	Z23	X24	Y24	Z24	X25	Y25	Z25	X26	Y26	Z26	X27	Y27	Z27
240	4.0	-66.28081833022753	3788.6314753130346	-546.0143435975681	288.52576448122835	3862.8627085675707	-535.2203552531893	648.7163298462402	4177.967030603907	-593.0395844102204	701.036766224336	3945.6775838026247	-488.08796621106615	719.7722993101448	4035.631899632721	-599.1680473208312	683.5564455142837	4197.73384332345	-562.9353032696848	-104.67817303660493	3899.2954205506308	-354.7239570176462	236.92338962753803	3981.932139633199	-355.56158598351624	584.129058693907	4196.727986096526	-384.80078218439047	677.2090272525825	4131.873187862227	-328.7157381154335	638.4362895173733	4139.187294354633	-291.96356240642666	626.1743518594491	4253.438478034767	-425.73674474272633	-647.8195643544997	3660.508670785441	-464.93581514936903	-889.8104797881796	3520.079273645304	-416.99157113175875	-731.1262343776036	3542.500617142036	-394.5864946156919	-557.1955685692772	3634.5806037481293	-623.5258364502287	-298.0245597034483	3736.4486221043853	-701.5250904052895	-42.73970798837721	3651.4404351910016	-611.3960547569832	75.2937792535018	3768.4693082612903	-570.1328087705593	88.81732341645073	3743.761695266777	-570.7233092086915	84.25185792331543	3674.902729404156	-583.9005714020481	-604.0008715357371	3746.7475696793344	-334.88367425609005	-386.3109430549204	3966.445667027071	-322.1475809525294	-118.08601503335396	3981.2074559308467	-294.10502608318285	18.5889562129179	3933.302183764604	-322.12550791833337	33.96453154543056	3928.5616126318087	-282.5363520840192	10.65966282842796	3996.2349837814254	-247.8252358076451
241	4.016666666666667	-66.3044913294668	3788.484669101751	-545.9617774203812	288.90210451353903	3859.7359291513503	-532.723791380418	648.8595061193264	4183.922448502844	-597.2895154623352	702.9888195172572	3955.2904477442116	-491.1277155529457	718.3565480588663	4035.949596943177	-600.2108190906524	683.066894808818	4203.250453332885	-567.3933474123312	-106.55985382885238	3894.0427391355315	-351.2556011277029	237.57985357048005	3989.5515985484417	-356.729029376222	584.1896531613363	4196.9415743376885	-384.9811742378556	676.5032166377093	4130.757997323375	-328.3832573877081	638.4526360331437	4139.248818773446	-291.47583253790646	626.8670558808237	4253.460301939497	-425.38635859269976	-646.2910202689387	3660.9132528860623	-464.8201294221666	-890.5587092192098	3524.4010651387707	-417.9427475203706	-732.9137024011169	3550.7089906872593	-398.3597636658742	-557.1944792853337	3634.5764713923745	-623.554760813397	-297.4385634152537	3727.154818997162	-698.870462635959	-42.734298264914564	3654.6161007648698	-612.3158413316318	74.54950148388991	3768.0810473021456	-570.0047495318657	90.59556915892816	3744.784694953779	-570.71174714866	84.33529045760491	3674.6111287568665	-584.4148156013335	-603.9924740002361	3746.66672597019	-334.8522407068933	-386.1897445234948	3964.834438231989	-321.5720276537893	-117.55690296376213	3981.6840678473877	-294.28751241148166	20.035267237948837	3934.683870344882	-322.7578578589523	33.858473226805195	3926.0665660199566	-280.74014766526363	12.044465742095067	3997.082220385493	-247.9539339386788
242	4.033333333333333	-66.32013017965367	3788.345657825011	-545.8906053718964	289.33065101933147	3856.8746517831087	-530.4265529175191	649.449274611598	4186.712483957042	-599.342543553254	704.8770223222488	3965.550659318731	-495.2429767699708	717.5019829587305	4036.131753023793	-601.1218464839682	682.5399367102394	4205.303213878743	-569.4798434201081	-108.1285012910097	3887.1937632046065	-346.61374023581124	238.09711860053153	4000.102070872368	-358.52181113300617	584.8459640997746	4197.457874682711	-385.2057137955669	675.6412781385625	4130.32665507128	-328.58291880761044	636.9664497160816	4139.619565640998	-291.73047015908776	626.7629904580618	4248.1185324798025	-423.0351843320041	-644.8290435729269	3661.3054709262997	-464.70497154333526	-891.1692310086926	3528.2318996839354	-418.79084786652646	-733.935336014261	3556.83506220488	-400.86660109763693	-557.1890478237794	3634.578142789114	-623.5702077000532	-297.21207617859426	3722.84781179766	-697.6429204641653	-42.720987448623966	3655.3413001931754	-612.5619569278157	72.78515359643443	3766.9919789553574	-569.5436307757584	91.80894238398378	3745.3051593612317	-570.6844344206559	84.28894384478447	3674.500602976188	-583.9311438353191	-603.9601811145438	3746.573420846044	-334.7997016223341	-386.071060821315	3962.186837461814	-319.7254691950771	-116.76525319363799	3982.3790179632015	-294.5357360223853	20.04037605322987	3935.5630395794888	-323.24045586399416	33.54846194226458	3921.163816359013	-277.43064893752523	13.401833003347807	3998.220451425165	-248.30817804183184
243	4.05	-66.34068484044492	3788.3177351988516	-545.8490591308492	289.74802444241436	3853.8263234949463	-527.9778672378698	649.6298642370565	4182.241085216211	-596.2382088694724	705.5903920143556	3968.7659805806024	-497.97870694539864	717.4078320078037	4036.1573129446138	-601.4858159709261	681.1948861503836	4200.621780718692	-566.5421383190777	-108.47008272886566	3882.005817775873	-342.97886966946817	237.82444783141065	4007.7388167212157	-359.98413444393736	586.5165067886593	4197.909651881155	-385.0095447523998	675.6616511816756	4130.306783150805	-328.52023015096466	635.0430444449682	4139.549347407638	-292.0582176631022	625.3985788333932	4236.518716106593	-417.7937797389726	-644.1221676660662	3661.5062606866163	-464.6407178351526	-891.9837006563629	3530.149977782508	-419.2432803943617	-733.3430102195014	3556.3705080280024	-399.3105543605716	-557.1822863965657	3634.615060843093	-623.5826020956486	-297.4073666718387	3727.1922255883305	-698.8975749768765	-42.752691715577434	3657.5338433945967	-613.1926933090085	71.23903523243375	3766.0353312424577	-569.1114024795106	91.84523914167987	3745.047845059925	-570.6612706823158	84.1562726881138	3675.100220011783	-583.059123555644	-603.927559178743	3746.5179732747024	-334.75180730024215	-386.00434400594196	3960.482524487797	-318.4104968369663	-116.41962527200002	3982.79594725021	-294.6640956199099	18.20820612469994	3935.398305539068	-323.3080658460505	33.24628253290963	3916.8960418927186	-274.6073290225288	13.962742468521492	3998.914667835641	-248.57709366044116
244	4.066666666666666	-66.36633902741721	3788.4123683537337	-545.8714507036434	290.2025238104518	3851.142379463654	-525.8101944945138	648.676684272239	4173.383116004901	-590.0099602653758	705.0857625625564	3964.1536092582223	-498.23154255809936	718.3568569141279	4036.256870287454	-601.3049337310493	679.7160641503563	4192.959675442401	-561.1526920034763	-107.73300600029476	3880.482182290839	-341.7956223529312	236.73454045645158	4009.6499358479145	-360.56292020451843	588.8406226195466	4197.258258347114	-383.7107964804321	677.059527603443	4130.965166296874	-328.14592628404273	634.4402776287588	4139.167796204047	-292.0461359592133	623.5137655963354	4222.9589381068545	-411.4568105284901	-644.138998303438	3661.5210741947553	-464.6324465845149	-892.6456289797493	3529.9719022478853	-419.23299902680515	-731.3923693623705	3549.3293064776085	-394.87738089693266	-557.1741533741069	3634.6835767127895	-623.6122397969679	-297.53773709146645	3736.8086567052505	-701.7028084242631	-42.80769343627732	3660.9936955855137	-614.1481849653868	70.622524704898	3765.6903919075153	-568.927878906692	90.96642177681251	3744.3266033406107	-570.6498193692207	84.04143745638557	3677.4506452878923	-582.5683330369642	-603.9155617756901	3746.522954691758	-334.73423001837284	-385.98453321993645	3960.0613265926663	-318.0545584532125	-116.97716051421276	3982.5108891498676	-294.5194428873429	15.65001935046839	3934.368700057857	-322.9612260781726	33.229338126219695	3916.879974575042	-274.7356530160399	13.481126105950128	3998.2218590483235	-248.1746798548918
245	4.083333333333333	-66.37014679029693	3788.5353706611377	-545.9330146943157	290.3481057931091	3849.643440740642	-524.620984941458	647.2153268014921	4166.871481440248	-585.4136724086661	704.4581781708567	3958.843323365977	-496.95344532018925	720.3102504757888	4036.389612696463	-600.6228741164202	680.5745823498036	4189.782345378885	-558.7000475862108	-106.7119179490201	3882.6885323323386	-343.22366024375333	236.01445836089542	4006.7707816161533	-360.1836046640934	590.749051911453	4195.390073853491	-381.69270377944747	679.2332765332712	4132.840652805118	-328.2289905832465	635.5054425303458	4138.790272984942	-291.8180977262907	622.9556135751793	4217.584338595152	-408.7218357379903	-644.7185495983597	3661.365874075112	-464.67020615566764	-892.0560226065901	3527.916048447019	-418.75158390490674	-729.3255040668283	3541.0132550550115	-391.56667060003537	-557.1624168066852	3634.7257491500086	-623.6419368427513	-297.25168130501083	3745.096248890787	-704.1718409584913	-42.83586628159081	3663.262547181594	-614.7515739414177	70.94192806689736	3765.9540235941076	-568.9989142516965	90.00463117091834	3744.263494977982	-570.7595949642514	84.05986448617224	3681.662853262331	-583.2331487031178	-603.9278152554677	3746.544378293848	-334.74267912224826	-385.98329014209133	3960.180788794255	-318.1498291903169	-117.78962290910405	3981.778165852781	-294.2105478324518	14.290527186298277	3933.382523449205	-322.5304707411037	33.39971522076878	3919.558504086456	-276.70053634247506	12.520214251444742	3995.589348459822	-246.64625049446875
246	4.1	-66.32783634278864	3788.6205180019792	-545.9934658857943	289.8004147847826	3849.263456713744	-524.4319530754703	646.6180651875894	4167.118515962269	-585.6263505816615	704.2433688757088	3958.220297268154	-495.2446807877849	722.0239202356897	4035.9843197819564	-599.586835236232	684.5908588902012	4194.562391521347	-561.8572791847819	-105.97650260802772	3887.600008037028	-346.59815035782833	236.44527436747003	4001.43240250568	-359.13109882868946	591.4130491769557	4194.46636867654	-380.9574430019072	680.9872280935944	4136.747029112522	-330.09988591374764	636.7573044548045	4138.789733512223	-292.1154176600169	624.605443147679	4227.296186188804	-412.72328767395214	-645.7099384343983	3661.062433107986	-464.74314857969307	-889.9535100168946	3524.153040927782	-417.8178682847504	-728.5960950124702	3537.499227543806	-392.01987299550547	-557.1465900444881	3634.6823358481274	-623.6294574049278	-297.0263754036769	3748.657441777039	-705.2545110744899	-42.83056561471973	3663.8698841288387	-614.8954951476572	71.88156273898608	3766.5837541137726	-569.2423618370938	89.68482947322082	3746.4700318263513	-571.276199824362	84.24216157961567	3686.148093710771	-585.263129136132	-603.9603808245437	3746.533495826783	-334.75988370316645	-385.9844427596706	3960.305153856052	-318.2764975040924	-117.75884257446582	3981.29742683275	-293.99655740565225	15.500817908259133	3933.3951137239324	-322.418598898519	33.33307105255133	3919.3305288086276	-276.47726716058463	11.797341168004417	3991.878373441685	-244.43549093502457
